<svg width="161" height="26" viewBox="0 0 161 26" fill="none" xmlns="http://www.w3.org/2000/svg">
<g clip-path="url(#clip0_5853_519)">
<path d="M85.633 18.0952H74.1447C74.1447 20.4222 75.3159 21.6833 77.5662 21.6833C78.7374 21.6833 79.5796 21.2802 80.1718 20.2012H85.4225C85.0672 21.9303 84.0144 23.4383 82.5142 24.3873C81.0403 25.2973 79.3296 25.7654 77.5925 25.7394C72.4997 25.7394 68.6834 22.6973 68.6834 17.1332C68.6834 11.569 72.197 8.50095 77.1977 8.50095C82.5405 8.50095 85.6199 11.972 85.6199 17.4842L85.633 18.0952ZM80.5666 15.3131C80.2902 13.7661 79.2506 12.232 77.4872 12.232C75.5922 12.232 74.5789 13.6361 74.2499 15.3131H80.5666Z" fill="#2571B7"/>
<path d="M94.3577 11.2179H94.4235C95.7263 9.20281 97.3055 8.5138 99.5031 8.5138C103.767 8.5138 105.478 11.3479 105.478 15.443V25.4792H100.043V17.627C100.043 16.028 100.095 13.2329 97.3055 13.2329C95.0157 13.2329 94.3709 15.0269 94.3709 17.094V25.4792H88.9886V9.07281H94.3577V11.2179Z" fill="#2571B7"/>
<path d="M121.096 23.4254H121.031C120.07 25.0374 118.175 25.7654 116.372 25.7654C111.806 25.7654 108.595 21.7613 108.595 17.1202C108.595 12.4791 111.753 8.50101 116.306 8.50101C118.083 8.50101 119.938 9.19002 121.083 10.6201V0.388819H126.176V25.4794H121.083V23.4254H121.096ZM113.477 17.1462C113.477 19.2003 114.767 20.7733 116.991 20.7733C119.214 20.7733 120.504 19.2003 120.504 17.1462C120.504 15.0922 119.214 13.4801 116.991 13.4801C114.767 13.4801 113.477 15.1572 113.477 17.1462Z" fill="#2571B7"/>
<path d="M146.365 18.0172H134.758C134.758 20.3702 135.942 21.6572 138.219 21.6572C139.403 21.6572 140.245 21.2412 140.851 20.1622H146.167C145.799 21.9043 144.746 23.4383 143.233 24.4003C141.746 25.3233 140.022 25.8043 138.258 25.7783C133.113 25.7783 129.257 22.7233 129.257 17.0811C129.257 11.439 132.81 8.35794 137.864 8.35794C143.259 8.35794 146.378 11.868 146.378 17.4321L146.365 18.0172ZM141.114 15.2611C140.838 13.7011 139.785 12.089 138.127 12.089C136.087 12.089 135.047 13.5711 134.718 15.2611H141.114Z" fill="#2571B7"/>
<path d="M154.723 11.803H154.789C155.868 9.74893 157.723 9.05991 159.921 9.05991H161V14.533C160.276 14.13 159.447 13.935 158.618 13.987C155.499 13.987 154.71 16.1711 154.71 19.0311V25.4793H149.446V9.07291H154.723V11.803Z" fill="#2571B7"/>
<path d="M15.6863 23.4514C17.0681 21.8393 17.7787 19.8503 17.7919 17.4972C17.7787 15.1312 17.0681 13.1421 15.6863 11.5431C14.2914 9.90505 12.4359 9.06003 10.1461 9.03403C9.26441 9.03403 8.39587 9.20303 7.57997 9.51504C6.73775 9.86605 5.98765 10.4121 5.39546 11.1011V0.440829H0V25.4794H5.39546V23.7114H5.4481C5.96133 24.4524 6.65879 25.0374 7.48785 25.4144C8.29059 25.8044 9.18545 26.0124 10.0803 25.9994C12.4096 25.9604 14.2651 25.1154 15.6863 23.4514ZM6.85619 20.0453C6.23768 19.3563 5.90869 18.4592 5.93501 17.5362C5.90869 16.6002 6.23768 15.6902 6.85619 15.0012C7.46153 14.3122 8.31691 13.9611 9.43548 13.9351C10.5541 13.9611 11.4094 14.3122 12.0411 15.0012C12.6464 15.7032 12.9623 16.6132 12.936 17.5362C12.9754 18.4592 12.6464 19.3563 12.0411 20.0453C11.4226 20.7473 10.5541 21.0853 9.43548 21.0853C8.31691 21.0853 7.46153 20.7473 6.85619 20.0453Z" fill="#2571B7"/>
<path d="M25.6851 10.269H20.2896V25.4794H25.6851V10.269Z" fill="#2571B7"/>
<path d="M37.3505 8.8909C36.403 8.8909 35.4555 9.0469 34.5606 9.34591C29.9547 10.8019 27.2307 6.95385 26.3885 2.92376V2.89776C26.1516 1.09072 24.4803 -0.19631 22.638 0.024695C20.7956 0.2457 19.4928 1.89674 19.7165 3.71678C19.9007 5.15981 20.993 6.31684 22.4406 6.57685H22.48C25.0593 7.16186 30.7443 10.2429 29.5599 13.727C27.4939 17.9781 29.3099 23.0742 33.6131 25.1153C37.9163 27.1563 43.0749 25.3623 45.141 21.1112C47.207 16.8601 45.391 11.764 41.0878 9.72292C39.9166 9.16391 38.6401 8.8779 37.3505 8.8779V8.8909ZM37.2189 20.9682C35.3239 20.9682 33.7842 19.4601 33.7842 17.5881C33.7842 15.7161 35.3107 14.195 37.2057 14.195C39.1007 14.195 40.6404 15.7031 40.6404 17.5751C40.6535 19.4471 39.1138 20.9682 37.2189 20.9682Z" fill="#2571B7"/>
<path d="M64.446 14.2471C65.2619 13.0511 65.683 11.634 65.6435 10.191C65.6304 7.82496 64.9066 6.09592 63.4722 5.00389C62.0509 3.92487 60.2217 3.39186 57.9583 3.39186H49.6677V25.4794H55.2474V17.0032H55.2737L60.8929 25.4794H67.5517L60.7744 16.4442C62.3141 16.1061 63.6432 15.3781 64.446 14.2471ZM60.0112 11.9591C59.7743 12.3491 59.419 12.6481 59.011 12.8431C58.5899 13.0511 58.1293 13.1941 57.6556 13.2461C57.1424 13.3241 56.616 13.3631 56.1028 13.3631H55.2605V7.61695H56.9055C57.1555 7.61695 57.4056 7.64295 57.6556 7.68196C58.1293 7.75996 58.5899 7.90296 59.011 8.11097C59.4322 8.27997 59.7743 8.57898 60.0112 8.95599C60.2875 9.424 60.4191 9.95701 60.3928 10.49C60.4191 11.01 60.2875 11.517 60.0112 11.9591Z" fill="#2571B7"/>
</g>
<defs>
<clipPath id="clip0_5853_519">
<rect width="161" height="26" fill="white"/>
</clipPath>
</defs>
</svg>
