<?xml version="1.0" encoding="UTF-8"?>
<svg id="Layer_1" xmlns="http://www.w3.org/2000/svg" version="1.1" viewBox="0 0 196.7 17.8">
  <!-- Generator: Adobe Illustrator 29.2.1, SVG Export Plug-In . SVG Version: 2.1.0 Build 116)  -->
  <defs>
    <style>
      .st0 {
        fill: #35a8db;
      }

      .st1 {
        isolation: isolate;
      }

      .st2 {
        fill: #f9f4e5;
      }
    </style>
  </defs>
  <g id="COMPLETECARE" class="st1">
    <g class="st1">
      <path class="st2" d="M.9,9.1C.9,4.3,3.7,1.1,8.5,1.1s6.4,1.9,7,5.7l-2.6.4c-.5-2.9-2.2-3.8-4.4-3.8s-4.8,2.3-4.8,5.8,1.6,5.8,4.8,5.8,3.9-.9,4.4-3.8l2.6.4c-.6,3.8-3.1,5.7-7,5.7S.9,13.9.9,9.1Z"/>
      <path class="st2" d="M18.9,9.1c0-4.7,2.9-8,7.7-8s7.7,3.3,7.7,8-2.8,8-7.7,8-7.7-3.3-7.7-8ZM31.6,9.1c0-3.4-1.8-5.7-4.9-5.7s-4.9,2.3-4.9,5.7,1.8,5.7,4.9,5.7,4.9-2.3,4.9-5.7Z"/>
      <path class="st2" d="M51.2,1.3h4.1v15.6h-2.5V7c0-1,0-1.9,0-3-.3,1.1-.6,2.1-1,3.2l-3.5,9.7h-2.5l-3.5-9.7c-.4-1.1-.7-2.1-1-3.2,0,1,0,2,0,3v9.9h-2.5V1.3h4.1l3.4,9.9c.3.8.5,1.7.8,2.5.2-.8.5-1.6.8-2.5l3.4-9.9Z"/>
      <path class="st2" d="M60.9,16.9V1.3h5.9c3.3,0,5.2,1.6,5.2,4.8s-1.9,4.9-5.3,4.9h-3.1v5.9h-2.7ZM63.5,8.9h3c1.8,0,2.7-1,2.7-2.8s-.9-2.7-2.7-2.7h-3v5.5Z"/>
      <path class="st2" d="M76.1,16.9V1.3h2.7v13.3h6.8v2.3h-9.5Z"/>
      <path class="st2" d="M89.8,16.9V1.3h9.8v2.3h-7.2v4.2h6.4v2.1h-6.4v4.7h7.4v2.3h-10.1Z"/>
      <path class="st2" d="M107.6,16.9V3.6h-4.3V1.3h11.2v2.3h-4.3v13.3h-2.7Z"/>
      <path class="st2" d="M118.8,16.9V1.3h9.8v2.3h-7.2v4.2h6.4v2.1h-6.4v4.7h7.4v2.3h-10.1Z"/>
    </g>
    <g class="st1">
      <path class="st0" d="M132.6,9.1c0-4.8,2.8-8,7.6-8s6.4,1.9,7,5.7l-2.6.4c-.5-2.9-2.2-3.8-4.4-3.8s-4.8,2.3-4.8,5.8,1.6,5.8,4.8,5.8,3.9-.9,4.4-3.8l2.6.4c-.6,3.8-3.1,5.7-7,5.7s-7.6-3.3-7.6-8Z"/>
      <path class="st0" d="M162.1,16.9l-1.2-3.6h-6.6l-1.2,3.6h-2.9l5.5-15.6h4l5.4,15.6h-2.9ZM155,11.3h5.3l-2.6-7.9-2.6,7.9Z"/>
      <path class="st0" d="M181.1,16.9h-3.2l-4-6.2h-2.1v6.2h-2.7V1.3h6.1c3.3,0,5.2,1.5,5.2,4.7s-1.3,4-3.5,4.5l4.2,6.4ZM171.8,3.4v5.2h3.2c1.8,0,2.7-.9,2.7-2.7s-.9-2.5-2.7-2.5h-3.2Z"/>
      <path class="st0" d="M185.5,16.9V1.3h9.8v2.3h-7.2v4.2h6.4v2.1h-6.4v4.7h7.4v2.3h-10.1Z"/>
    </g>
  </g>
</svg>